<svg width="107" height="58" viewBox="0 0 107 58" fill="none" xmlns="http://www.w3.org/2000/svg">
<g clip-path="url(#clip0_1_23)">
<path fill-rule="evenodd" clip-rule="evenodd" d="M33.5587 8.11695C29.9044 8.11695 23.0916 13.2171 23.0895 17.0392C23.0905 18.7323 24.8992 20.4114 26.9577 22.3225C29.6776 24.8477 32.8337 27.7778 32.8337 31.6803C32.8337 40.3352 23.3716 47.0708 15.212 47.0708C10.5926 47.0708 4.38184 42.6482 4.38184 38.8883C4.38184 35.1285 9.0571 29.8068 13.5453 29.8068C15.2449 29.8068 16.9083 31.9591 16.9738 33.6193V33.6225C16.9738 33.675 16.928 33.7177 16.8754 33.7177C10.3629 34.2098 10.0807 38.2256 11.0125 40.5387C12.8662 45.1516 27.2857 36.7754 27.2857 32.2478C27.2857 27.8057 24.1127 25.2652 21.3216 23.0303C19.1301 21.2757 17.174 19.7094 17.174 17.5593C17.174 10.9286 24.8218 4.6228 32.2924 4.6228C38.0437 4.6228 40.5799 8.35973 40.5799 11.9195C40.5799 15.4793 36.272 20.4334 32.8271 20.4334C30.1467 20.4334 28.1092 17.3952 28.3192 17.3133C31.4754 16.47 36.318 12.871 36.318 10.0264C36.318 8.73376 35.1369 8.11695 33.5587 8.11695ZM84.098 33.146C84.226 32.7228 83.9175 32.5161 83.6288 32.7129C81.9523 33.8645 81.4208 33.9137 81.1123 33.9137C80.7875 33.9137 81.7193 30.4557 83.3697 26.1249L83.3762 26.1085C83.5402 25.7457 83.7015 25.3875 83.8585 25.0387C84.8576 22.8201 85.6848 20.9831 85.9484 20.7705C89.7313 17.7455 94.9511 7.99802 94.9511 7.08922C94.9511 6.60364 93.0056 4.62526 91.6046 4.62526C90.2037 4.62526 86.3946 10.2914 82.8677 16.6005C79.2095 22.4339 75.4365 30.0948 75.4365 33.8711C75.4365 34.8554 78.1595 38.4709 79.554 38.4709C79.7869 38.4709 80.161 38.297 80.6301 38.0017C81.6045 37.3849 82.4379 36.5778 83.1006 35.6394C83.3992 35.2196 83.619 34.7471 83.7666 34.255L84.1013 33.146H84.098ZM91.3324 9.48426C91.4176 9.48426 91.4833 9.52363 91.5194 9.5958C91.6022 9.75933 90.1463 12.0644 88.9281 13.9929L88.9273 13.9943L88.9268 13.9952C88.3125 14.9679 87.7588 15.8444 87.4937 16.302C87.3166 16.6071 86.8572 16.3577 87.0179 16.0427C87.7561 14.5926 91.165 9.48426 91.3324 9.48426ZM97.6192 21.5047C98.4394 20.1628 99.276 18.9783 100.093 18.0663C100.1 17.5282 97.1992 15.9305 95.7688 15.9305C94.7681 16.977 93.3606 18.9029 91.894 21.2357C90.8475 21.1963 90.0633 21.17 89.7648 21.17C88.3933 21.17 86.3264 24.861 86.3264 25.1432C86.3264 25.2318 86.4445 25.2547 86.5528 25.2547C87.1269 25.2547 88.2424 25.2055 89.6171 25.1267C88.9151 26.4194 88.2392 27.7547 87.6355 29.0737C86.5757 31.2653 85.6112 34.4805 85.5192 34.7922C85.2436 35.8749 85.0829 36.8723 85.0829 37.7286C85.0829 38.7129 87.8061 42.3285 89.2004 42.3285C90.8704 42.3285 95.5949 36.9248 96.4479 35.6879C96.6874 35.3171 96.6972 33.7358 96.402 32.9681C96.3561 32.8466 96.2412 32.9386 96.2346 32.9484C95.3554 33.8966 91.4019 37.7713 90.7589 37.7713C90.2601 37.7713 92.6913 30.76 95.8147 24.7298C98.7839 24.5231 101.359 24.3229 101.655 24.2835C102.39 24.1851 102.806 22.2822 102.806 21.9771C102.806 21.8361 100.385 21.6621 97.616 21.5047H97.6192ZM48.1237 36.6479C50.988 36.6479 59.0097 24.2101 59.0097 20.2534C59.0097 19.1313 56.1521 16.2376 54.7971 16.2376C53.5143 16.2376 50.4761 18.9705 48.1368 21.3984C48.3534 20.8701 48.5174 20.3124 48.5174 19.8531C48.5174 18.1372 46.6572 16.3491 45.0496 16.1621C43.7307 19.1673 37.7759 23.0192 34.2161 24.4725C34.3473 24.9319 35.1184 26.3886 35.8106 26.3886C36.7621 26.3886 39.3901 25.3846 40.7877 24.6826C38.7142 29.7319 32.2606 43.5574 31.2436 45.0896C32.3329 46.3397 35.2003 47.9473 36.47 47.9473C36.7419 47.9566 39.8297 40.5623 42.6381 33.8371L43.1564 32.5961C44.3048 34.8008 45.8402 36.6446 48.127 36.6446L48.1237 36.6479ZM45.0693 28.0225C47.2182 25.1189 52.7432 19.4232 53.6159 19.4232C54.5182 19.42 48.3108 31.0508 46.6112 31.0508C45.9518 31.0508 44.8757 29.7122 44.541 29.2791L45.0693 28.0225ZM68.837 39.0553C76.8325 39.6196 84.1489 41.3191 85.4842 42.2738H85.4875C86.3766 42.9071 86.9901 44.5671 86.9901 45.3841C84.664 44.9379 75.7202 43.6453 66.4124 43.3631C62.9675 49.1899 59.4897 53.7471 57.0783 53.7471C50.756 53.7471 42.1371 44.951 42.1371 43.5796C42.1371 42.848 43.5348 40.0429 44.0795 39.9313C47.4456 39.239 55.51 38.8978 62.7116 38.8682C64.0961 36.4142 65.5134 33.7337 66.8554 31.1024C65.3133 32.7855 60.9956 36.8669 59.808 36.8669C58.6203 36.8669 56.6813 34.193 56.6813 32.8577C56.6813 31.7592 59.6039 25.4925 61.6855 21.0293C62.6504 18.9605 63.4344 17.2792 63.663 16.6797C65.0968 16.6797 68.2694 18.0249 68.2694 18.8155C68.2694 19.4111 66.5333 23.3956 65.0879 26.7128C63.9694 29.2797 63.025 31.447 63.1939 31.3354C63.4043 31.1973 64.3808 30.3127 65.5006 29.2983C66.668 28.2408 67.9911 27.0423 68.7648 26.401C69.9087 24.0494 71.0741 21.8144 71.9878 20.0622C72.8613 18.3868 73.5048 17.1527 73.6796 16.6797C75.1133 16.6797 78.4631 18.0478 78.2859 18.8155C78.0891 19.6883 73.778 29.8983 68.837 39.0553ZM48.2986 44.1308C48.2986 44.5376 53.4037 48.7109 55.2017 48.7109C56.2384 48.7109 58.0068 46.5455 60.0475 43.3402C54.0927 43.4615 48.2986 43.9274 48.2986 44.1308Z" fill="#523122"/>
<mask id="mask0_1_23" style="mask-type:luminance" maskUnits="userSpaceOnUse" x="0" y="0" width="107" height="59">
<path d="M106.997 0.434448H0.193359V58.0244H106.997V0.434448Z" fill="white"/>
<path fill-rule="evenodd" clip-rule="evenodd" d="M33.5587 8.11695C29.9044 8.11695 23.0916 13.2171 23.0895 17.0392C23.0905 18.7323 24.8992 20.4114 26.9577 22.3225C29.6776 24.8477 32.8337 27.7778 32.8337 31.6803C32.8337 40.3352 23.3716 47.0708 15.212 47.0708C10.5926 47.0708 4.38184 42.6482 4.38184 38.8883C4.38184 35.1285 9.0571 29.8068 13.5453 29.8068C15.2449 29.8068 16.9083 31.9591 16.9738 33.6193V33.6225C16.9738 33.675 16.928 33.7177 16.8754 33.7177C10.3629 34.2098 10.0807 38.2256 11.0125 40.5387C12.8662 45.1516 27.2857 36.7754 27.2857 32.2478C27.2857 27.8057 24.1127 25.2652 21.3216 23.0303C19.1301 21.2757 17.174 19.7094 17.174 17.5593C17.174 10.9286 24.8218 4.6228 32.2924 4.6228C38.0437 4.6228 40.5799 8.35973 40.5799 11.9195C40.5799 15.4793 36.272 20.4334 32.8271 20.4334C30.1467 20.4334 28.1092 17.3952 28.3192 17.3133C31.4754 16.47 36.318 12.871 36.318 10.0264C36.318 8.73376 35.1369 8.11695 33.5587 8.11695ZM84.098 33.146C84.226 32.7228 83.9175 32.5161 83.6288 32.7129C81.9523 33.8645 81.4208 33.9137 81.1123 33.9137C80.7875 33.9137 81.7193 30.4557 83.3697 26.1249L83.3762 26.1085C83.5402 25.7457 83.7015 25.3875 83.8585 25.0387C84.8576 22.8201 85.6848 20.9831 85.9484 20.7705C89.7313 17.7455 94.9511 7.99802 94.9511 7.08922C94.9511 6.60364 93.0056 4.62526 91.6046 4.62526C90.2037 4.62526 86.3946 10.2914 82.8677 16.6005C79.2095 22.4339 75.4365 30.0948 75.4365 33.8711C75.4365 34.8554 78.1595 38.4709 79.554 38.4709C79.7869 38.4709 80.161 38.297 80.6301 38.0017C81.6045 37.3849 82.4379 36.5778 83.1006 35.6394C83.3992 35.2196 83.619 34.7471 83.7666 34.255L84.1013 33.146H84.098ZM91.3324 9.48426C91.4176 9.48426 91.4833 9.52363 91.5194 9.5958C91.6022 9.75933 90.1463 12.0644 88.9281 13.9929L88.9273 13.9943L88.9268 13.9952C88.3125 14.9679 87.7588 15.8444 87.4937 16.302C87.3166 16.6071 86.8572 16.3577 87.0179 16.0427C87.7561 14.5926 91.165 9.48426 91.3324 9.48426ZM97.6192 21.5047C98.4394 20.1628 99.276 18.9783 100.093 18.0663C100.1 17.5282 97.1992 15.9305 95.7688 15.9305C94.7681 16.977 93.3606 18.9029 91.894 21.2357C90.8475 21.1963 90.0633 21.17 89.7648 21.17C88.3933 21.17 86.3264 24.861 86.3264 25.1432C86.3264 25.2318 86.4445 25.2547 86.5528 25.2547C87.1269 25.2547 88.2424 25.2055 89.6171 25.1267C88.9151 26.4194 88.2392 27.7547 87.6355 29.0737C86.5757 31.2653 85.6112 34.4805 85.5192 34.7922C85.2436 35.8749 85.0829 36.8723 85.0829 37.7286C85.0829 38.7129 87.8061 42.3285 89.2004 42.3285C90.8704 42.3285 95.5949 36.9248 96.4479 35.6879C96.6874 35.3171 96.6972 33.7358 96.402 32.9681C96.3561 32.8466 96.2412 32.9386 96.2346 32.9484C95.3554 33.8966 91.4019 37.7713 90.7589 37.7713C90.2601 37.7713 92.6913 30.76 95.8147 24.7298C98.7839 24.5231 101.359 24.3229 101.655 24.2835C102.39 24.1851 102.806 22.2822 102.806 21.9771C102.806 21.8361 100.385 21.6621 97.616 21.5047H97.6192ZM48.1237 36.6479C50.988 36.6479 59.0097 24.2101 59.0097 20.2534C59.0097 19.1313 56.1521 16.2376 54.7971 16.2376C53.5143 16.2376 50.4761 18.9705 48.1368 21.3984C48.3534 20.8701 48.5174 20.3124 48.5174 19.8531C48.5174 18.1372 46.6572 16.3491 45.0496 16.1621C43.7307 19.1673 37.7759 23.0192 34.2161 24.4725C34.3473 24.9319 35.1184 26.3886 35.8106 26.3886C36.7621 26.3886 39.3901 25.3846 40.7877 24.6826C38.7142 29.7319 32.2606 43.5574 31.2436 45.0896C32.3329 46.3397 35.2003 47.9473 36.47 47.9473C36.7419 47.9566 39.8297 40.5623 42.6381 33.8371L43.1564 32.5961C44.3048 34.8008 45.8402 36.6446 48.127 36.6446L48.1237 36.6479ZM45.0693 28.0225C47.2182 25.1189 52.7432 19.4232 53.6159 19.4232C54.5182 19.42 48.3108 31.0508 46.6112 31.0508C45.9518 31.0508 44.8757 29.7122 44.541 29.2791L45.0693 28.0225ZM68.837 39.0553C76.8325 39.6196 84.1489 41.3191 85.4842 42.2738H85.4875C86.3766 42.9071 86.9901 44.5671 86.9901 45.3841C84.664 44.9379 75.7202 43.6453 66.4124 43.3631C62.9675 49.1899 59.4897 53.7471 57.0783 53.7471C50.756 53.7471 42.1371 44.951 42.1371 43.5796C42.1371 42.848 43.5348 40.0429 44.0795 39.9313C47.4456 39.239 55.51 38.8978 62.7116 38.8682C64.0961 36.4142 65.5134 33.7337 66.8554 31.1024C65.3133 32.7855 60.9956 36.8669 59.808 36.8669C58.6203 36.8669 56.6813 34.193 56.6813 32.8577C56.6813 31.7592 59.6039 25.4925 61.6855 21.0293C62.6504 18.9605 63.4344 17.2792 63.663 16.6797C65.0968 16.6797 68.2694 18.0249 68.2694 18.8155C68.2694 19.4111 66.5333 23.3956 65.0879 26.7128C63.9694 29.2797 63.025 31.447 63.1939 31.3354C63.4043 31.1973 64.3808 30.3127 65.5006 29.2983C66.668 28.2408 67.9911 27.0423 68.7648 26.401C69.9087 24.0494 71.0741 21.8144 71.9878 20.0622C72.8613 18.3868 73.5048 17.1527 73.6796 16.6797C75.1133 16.6797 78.4631 18.0478 78.2859 18.8155C78.0891 19.6883 73.778 29.8983 68.837 39.0553ZM48.2986 44.1308C48.2986 44.5376 53.4037 48.7109 55.2017 48.7109C56.2384 48.7109 58.0068 46.5455 60.0475 43.3402C54.0927 43.4615 48.2986 43.9274 48.2986 44.1308Z" fill="black"/>
</mask>
<g mask="url(#mask0_1_23)">
<path d="M23.0894 17.0392L18.901 17.0369V17.0419L23.0894 17.0392ZM26.9576 22.3225L29.9192 19.361L29.8643 19.306L29.8073 19.2531L26.9576 22.3225ZM26.9576 22.3225L23.996 25.2842L24.051 25.3392L24.108 25.3921L26.9576 22.3225ZM16.9737 33.6193H21.1621V33.5366L21.1588 33.4539L16.9737 33.6193ZM16.8753 33.7177V29.5294H16.7173L16.5597 29.5413L16.8753 33.7177ZM11.0124 40.5387L14.8987 38.9769L14.8973 38.9736L11.0124 40.5387ZM28.3191 17.3133L27.238 13.2668L27.0125 13.3271L26.7951 13.412L28.3191 17.3133ZM83.6287 32.7129L81.2693 29.2524L81.2574 29.2606L83.6287 32.7129ZM84.0979 33.146L80.0887 31.9339L78.4561 37.3344H84.0979V33.146ZM83.3695 26.1249L79.4804 24.5702L79.4678 24.6017L79.4557 24.6335L83.3695 26.1249ZM83.376 26.1085L79.5596 24.3831L79.5214 24.4676L79.4869 24.5538L83.376 26.1085ZM85.9483 20.7705L83.3325 17.4994L83.3258 17.5048L83.319 17.5102L85.9483 20.7705ZM82.8676 16.6005L86.416 18.8257L86.472 18.7364L86.5235 18.6442L82.8676 16.6005ZM80.6299 38.0017L82.861 41.5465L82.8701 41.5406L80.6299 38.0017ZM83.1004 35.6394L79.6868 33.2126L79.6794 33.2232L83.1004 35.6394ZM83.7665 34.255L79.7568 33.0449L79.7548 33.0515L83.7665 34.255ZM84.1012 33.146L88.1109 34.356L89.7401 28.9576H84.1012V33.146ZM91.5193 9.59581L87.7731 11.469L87.7781 11.479L87.783 11.4888L91.5193 9.59581ZM88.928 13.9929L92.413 16.3162L92.4417 16.2733L92.4692 16.2296L88.928 13.9929ZM88.928 13.9929L85.443 11.67L85.4109 11.7181L85.3801 11.7671L88.928 13.9929ZM88.9272 13.9943L92.4717 16.2255L92.4751 16.2203L88.9272 13.9943ZM88.9267 13.9952L92.4678 16.2318L92.4712 16.2265L88.9267 13.9952ZM87.4936 16.302L91.1157 18.4051L91.1177 18.4015L87.4936 16.302ZM87.0178 16.0427L90.7484 17.9469L90.7505 17.9429L87.0178 16.0427ZM100.093 18.0663L103.213 20.8607L104.262 19.6895L104.281 18.1173L100.093 18.0663ZM97.6191 21.5047V25.693H99.9678L101.193 23.689L97.6191 21.5047ZM95.7687 15.9305V11.7421H93.9785L92.7413 13.036L95.7687 15.9305ZM91.8939 21.2357L91.7365 25.421L94.1528 25.5119L95.4398 23.4648L91.8939 21.2357ZM89.617 25.1268L93.2975 27.1258L96.8881 20.5151L89.3774 20.9452L89.617 25.1268ZM87.6354 29.0737L91.4061 30.897L91.4253 30.8571L91.4438 30.8168L87.6354 29.0737ZM85.5191 34.7922L81.5016 33.6082L81.4795 33.6832L81.4603 33.7591L85.5191 34.7922ZM96.4478 35.6879L99.8957 38.0658L99.9316 38.0138L99.9658 37.9607L96.4478 35.6879ZM96.4018 32.9681L92.4845 34.4502L92.4886 34.4609L92.4926 34.4716L96.4018 32.9681ZM96.2345 32.9484L99.3056 35.7963L99.5338 35.5502L99.7199 35.271L96.2345 32.9484ZM95.8145 24.7298L95.5238 20.5515L93.1773 20.7148L92.0955 22.8035L95.8145 24.7298ZM101.655 24.2835L102.208 28.4351L102.211 28.4348L101.655 24.2835ZM97.6158 21.5047V17.3163L97.378 25.6862L97.6158 21.5047ZM48.1236 36.6479L45.1629 33.6855L38.0077 40.8363H48.1236V36.6479ZM48.1367 21.3984L44.2613 19.8097L51.1529 24.3045L48.1367 21.3984ZM45.0495 16.1621L45.5334 12.0018L42.4582 11.6441L41.2142 14.4789L45.0495 16.1621ZM34.216 24.4725L32.6328 20.5949L29.1575 22.0139L30.1887 25.6232L34.216 24.4725ZM40.7876 24.6826L44.6619 26.2736L48.9172 15.9115L38.9075 20.9399L40.7876 24.6826ZM31.2435 45.0896L27.7539 42.7733L25.9879 45.4337L28.0858 47.8413L31.2435 45.0896ZM36.4699 47.9473L36.6126 43.7614L36.5413 43.7589H36.4699V47.9473ZM43.1563 32.5961L46.8711 30.6613L42.739 22.7276L39.2915 30.9819L43.1563 32.5961ZM48.1269 36.6446L51.0876 39.6072L58.2428 32.4563H48.1269V36.6446ZM53.6158 19.4233V23.6116H53.6235H53.631L53.6158 19.4233ZM45.0692 28.0225L41.7026 25.5308L41.4031 25.9354L41.208 26.3994L45.0692 28.0225ZM44.5409 29.2791L40.6798 27.656L39.7334 29.9075L41.2268 31.8401L44.5409 29.2791ZM85.484 42.2738L83.0481 45.6809L84.1408 46.4622H85.484V42.2738ZM68.8369 39.0553L65.1509 37.0664L62.0697 42.7765L68.542 43.2333L68.8369 39.0553ZM85.4874 42.2738L87.9171 38.8623L86.8263 38.0854H85.4874V42.2738ZM86.99 45.3841L86.201 49.4975L91.1783 50.4522V45.3841H86.99ZM66.4123 43.3631L66.5392 39.1766L64.0661 39.1017L62.8069 41.2315L66.4123 43.3631ZM44.0793 39.9313L44.9197 44.0345L44.923 44.0338L44.0793 39.9313ZM62.7115 38.8683L62.7287 43.0566L65.1632 43.0467L66.3593 40.9263L62.7115 38.8683ZM66.8552 31.1024L70.5865 33.0053L63.767 28.2731L66.8552 31.1024ZM63.6629 16.6797V12.4913H60.7774L59.7494 15.1875L63.6629 16.6797ZM63.1938 31.3354L60.8952 27.8341L60.8841 27.8413L63.1938 31.3354ZM68.7647 26.401L71.4377 29.6254L72.135 29.0474L72.5311 28.2331L68.7647 26.401ZM73.6795 16.6797V12.4913H70.7619L69.7507 15.228L73.6795 16.6797ZM78.2858 18.8155L74.2047 17.8738L74.2024 17.8838L74.2002 17.8939L78.2858 18.8155ZM60.0474 43.3402L63.5805 45.5894L67.7799 38.9933L59.962 39.1526L60.0474 43.3402ZM27.2777 17.0415C27.2775 17.2715 27.21 17.0673 27.6669 16.4006C28.0833 15.7932 28.7461 15.0847 29.5934 14.3972C30.4328 13.7162 31.3384 13.1489 32.1526 12.7691C32.5558 12.5808 32.8985 12.4565 33.1669 12.3829C33.4454 12.3066 33.5697 12.3053 33.5586 12.3053V3.92859C31.7828 3.92859 30.0342 4.51369 28.6103 5.17812C27.1191 5.87398 25.6363 6.82068 24.3154 7.89238C23.0025 8.95772 21.7333 10.2409 20.7574 11.6648C19.8221 13.0293 18.9022 14.8958 18.901 17.0369L27.2777 17.0415ZM29.8073 19.2531C28.7137 18.2377 27.986 17.5508 27.498 16.9523C26.967 16.301 27.2773 16.4078 27.2777 17.0365L18.901 17.0419C18.9025 19.3637 20.1176 21.1565 21.0058 22.2458C21.937 23.388 23.1431 24.4963 24.108 25.3921L29.8073 19.2531ZM37.022 31.6803C37.022 28.532 35.7332 25.9674 34.2903 24.0043C32.8859 22.0938 31.1122 20.4645 29.8073 19.2531L24.108 25.3921C25.5229 26.7058 26.6871 27.8041 27.5408 28.9655C28.3558 30.0744 28.6452 30.9261 28.6452 31.6803H37.022ZM15.2119 51.2592C20.361 51.2592 25.6832 49.1728 29.7324 45.8647C33.7915 42.5487 37.022 37.6071 37.022 31.6803H28.6452C28.6452 34.4084 27.1445 37.1621 24.4327 39.3777C21.711 41.6012 18.2225 42.8825 15.2119 42.8825V51.2592ZM0.193359 38.8884C0.193359 40.9648 1.03339 42.7716 1.98297 44.1405C2.95308 45.5389 4.22609 46.76 5.57375 47.7569C8.17912 49.6841 11.7416 51.2592 15.2119 51.2592V42.8825C14.0627 42.8825 12.2102 42.2465 10.5553 41.0223C9.77283 40.4436 9.20444 39.8541 8.86568 39.3657C8.50639 38.8478 8.57009 38.6918 8.57009 38.8884H0.193359ZM13.5452 25.6185C9.73183 25.6185 6.42228 27.7855 4.26019 30.0358C2.13104 32.2518 0.193359 35.5091 0.193359 38.8884H8.57009C8.57009 38.5077 8.97003 37.2243 10.3006 35.8395C11.5982 34.489 12.8704 33.9952 13.5452 33.9952V25.6185ZM21.1588 33.4539C21.0798 31.4521 20.1343 29.6322 19.0576 28.3712C18.0185 27.1538 16.1185 25.6185 13.5452 25.6185V33.9952C13.0798 33.9952 12.7878 33.85 12.7007 33.7999C12.6135 33.7498 12.6242 33.7367 12.6867 33.81C12.7456 33.8789 12.7926 33.9575 12.8165 34.0117C12.8459 34.0787 12.7974 34.0055 12.7887 33.7847L21.1588 33.4539ZM21.1621 33.6225V33.6193H12.7854V33.6225H21.1621ZM16.8753 37.9061C19.0552 37.9061 21.1621 36.1697 21.1621 33.6225H12.7854C12.7854 31.1804 14.8005 29.5294 16.8753 29.5294V37.9061ZM14.8973 38.9736C14.8395 38.83 14.8083 38.6697 14.8079 38.5496C14.8075 38.4454 14.8284 38.4535 14.7956 38.5113C14.7494 38.5929 14.7444 38.5214 15.0112 38.3827C15.3137 38.2257 15.9689 37.9865 17.1909 37.8941L16.5597 29.5413C12.4989 29.8481 9.21232 31.3754 7.50888 34.3794C5.91166 37.196 6.35951 40.1974 7.1274 42.1037L14.8973 38.9736ZM23.0972 32.2478C23.0972 31.7475 23.2734 31.6056 23.0852 31.9146C22.9234 32.1804 22.6046 32.5901 22.0757 33.1072C21.0196 34.1395 19.4885 35.248 17.8454 36.1403C16.1559 37.0576 14.6975 37.5569 13.803 37.6718C13.3516 37.7299 13.3672 37.6466 13.649 37.7469C14.0812 37.9008 14.6354 38.3215 14.8987 38.9769L7.12608 42.1004C7.85289 43.9091 9.26305 45.077 10.8387 45.6381C12.2638 46.1456 13.71 46.1294 14.8712 45.9802C17.2017 45.6805 19.6956 44.6677 21.8428 43.5016C24.0362 42.3106 26.2259 40.7644 27.9314 39.097C28.7834 38.2642 29.6056 37.3128 30.2395 36.2719C30.8472 35.2742 31.4739 33.8801 31.4739 32.2478H23.0972ZM18.7036 26.2998C21.7504 28.7393 23.0972 30.095 23.0972 32.2478H31.4739C31.4739 25.5165 26.4746 21.7909 23.9393 19.7608L18.7036 26.2998ZM12.9856 17.5593C12.9856 20.0257 14.1422 21.8965 15.2618 23.1874C16.3242 24.4122 17.6913 25.4893 18.7036 26.2998L23.9393 19.7608C22.7601 18.8167 22.0535 18.2332 21.5899 17.6988C21.1837 17.2304 21.3623 17.243 21.3623 17.5593H12.9856ZM32.2922 0.434448C27.4309 0.434448 22.7187 2.45528 19.2279 5.40576C15.7735 8.32548 12.9856 12.6333 12.9856 17.5593H21.3623C21.3623 15.8548 22.3982 13.6943 24.6353 11.8034C26.8361 9.94327 29.683 8.81118 32.2922 8.81118V0.434448ZM44.7681 11.9195C44.7681 9.16865 43.7876 6.25096 41.5827 4.00322C39.3294 1.7062 36.1209 0.434448 32.2922 0.434448V8.81118C34.2149 8.81118 35.1502 9.40788 35.6028 9.86928C36.1038 10.3799 36.3914 11.1106 36.3914 11.9195H44.7681ZM32.827 24.6217C36.3266 24.6217 39.3135 22.3175 41.1153 20.3054C42.9697 18.2346 44.7681 15.1474 44.7681 11.9195H36.3914C36.3914 12.007 36.3509 12.3615 36.0685 12.9568C35.799 13.5251 35.3865 14.1461 34.875 14.7173C34.3605 15.2919 33.8281 15.7243 33.3756 15.9892C32.8958 16.2701 32.7139 16.245 32.827 16.245V24.6217ZM26.7951 13.412C25.2709 14.0074 24.5272 15.2654 24.2648 16.2286C24.0435 17.0411 24.1227 17.7126 24.1643 17.9875C24.2539 18.5808 24.4512 19.0297 24.5221 19.1874C24.7062 19.5972 24.9313 19.9529 25.1044 20.2052C25.4797 20.752 25.9946 21.3671 26.6191 21.9546C27.7682 23.0356 29.9345 24.6217 32.827 24.6217V16.245C33.039 16.245 32.8464 16.3121 32.3592 15.8536C32.1653 15.6713 32.0429 15.5115 32.0113 15.4656C31.9812 15.4215 32.0606 15.5265 32.163 15.7544C32.193 15.8212 32.3654 16.1963 32.447 16.7361C32.4845 16.9843 32.564 17.634 32.347 18.4303C32.089 19.3773 31.3542 20.6243 29.843 21.2145L26.7951 13.412ZM32.1295 10.0264C32.1295 9.58668 32.2919 9.52799 32.0332 9.91387C31.8044 10.255 31.3941 10.7165 30.7936 11.2255C29.5393 12.2888 28.0801 13.0419 27.238 13.2668L29.4001 21.3597C31.7142 20.7415 34.2544 19.2734 36.2104 17.6152C37.2151 16.7634 38.2127 15.7391 38.9906 14.5791C39.7384 13.4637 40.5063 11.8885 40.5063 10.0264H32.1295ZM33.5586 12.3053C33.894 12.3053 33.6943 12.3852 33.2695 12.1129C33.0219 11.9541 32.7066 11.6757 32.4622 11.2432C32.2128 10.8019 32.1295 10.3628 32.1295 10.0264H40.5063C40.5063 7.86532 39.4086 6.09835 37.7906 5.06102C36.3807 4.15709 34.8014 3.92859 33.5586 3.92859V12.3053ZM85.9882 36.1735C85.0174 36.8353 83.0583 37.33 81.3584 35.9312C79.6997 34.5665 79.8577 32.6981 80.0887 31.9339L88.107 34.3581C88.4659 33.1707 88.5338 30.9874 86.6808 29.4627C84.7864 27.904 82.5287 28.3937 81.2693 29.2524L85.9882 36.1735ZM81.1122 38.1021C82.7095 38.1021 84.111 37.463 86.0002 36.1653L81.2574 29.2606C80.9087 29.5 80.6585 29.6553 80.4879 29.7531C80.3155 29.852 80.2497 29.8776 80.2682 29.8701C80.2933 29.8597 80.418 29.8111 80.6206 29.7728C80.7218 29.7536 80.8238 29.7406 80.9229 29.733C81.0198 29.7257 81.0924 29.7254 81.1122 29.7254V38.1021ZM79.4557 24.6335C78.5968 26.8874 77.9096 28.9529 77.4708 30.5008C77.2573 31.2536 77.073 31.9867 76.9683 32.5951C76.9237 32.8541 76.849 33.3314 76.861 33.8535C76.8658 34.0576 76.8848 34.7027 77.1803 35.437C77.5032 36.2397 78.6513 38.1021 81.1122 38.1021V29.7254C82.1266 29.7254 83.0865 30.0964 83.8265 30.7368C84.4855 31.3071 84.8037 31.9429 84.9517 32.3106C85.2258 32.9922 85.2333 33.5588 85.2356 33.6598C85.2429 33.9758 85.2006 34.1492 85.2235 34.0163C85.2537 33.8412 85.3446 33.439 85.5298 32.7859C85.8881 31.5221 86.492 29.6932 87.2834 27.6163L79.4557 24.6335ZM79.4869 24.5538L79.4804 24.5702L87.2587 27.6797L87.2653 27.6632L79.4869 24.5538ZM80.0394 23.3191C79.8822 23.6683 79.7221 24.0236 79.5596 24.3831L87.1926 27.8339C87.358 27.4677 87.5206 27.1068 87.6775 26.7584L80.0394 23.3191ZM83.319 17.5102C82.7441 17.9739 82.4028 18.5044 82.3359 18.6052C82.1946 18.8175 82.0735 19.0287 81.9811 19.1967C81.7927 19.5393 81.5927 19.9433 81.4 20.3468C81.0102 21.1625 80.5314 22.2264 80.0394 23.3191L87.6775 26.7584C88.1845 25.6326 88.6188 24.6687 88.9583 23.958C89.1301 23.5983 89.2489 23.3646 89.3209 23.2336C89.3587 23.1648 89.3533 23.1802 89.3117 23.2427C89.2903 23.2749 89.2346 23.3571 89.1477 23.4644C89.0792 23.5491 88.8861 23.7819 88.5776 24.0308L83.319 17.5102ZM90.7626 7.08922C90.7626 6.68029 90.8276 6.38046 90.8464 6.29556C90.873 6.17519 90.8977 6.09734 90.9034 6.07999C90.9144 6.04564 90.9054 6.07812 90.8546 6.19971C90.7567 6.43414 90.5855 6.80492 90.3356 7.30079C89.8417 8.28156 89.1255 9.58316 88.2879 10.9629C86.4998 13.9084 84.5804 16.5016 83.3325 17.4994L88.5641 24.0417C91.0991 22.0145 93.681 18.2214 95.4486 15.3098C96.3888 13.7608 97.2141 12.2661 97.817 11.069C98.1156 10.476 98.3818 9.91258 98.5842 9.42817C98.6835 9.19035 98.7904 8.91727 98.8797 8.63881C98.9223 8.50583 99.1394 7.86247 99.1394 7.08922H90.7626ZM91.6045 8.81364C91.2952 8.81364 91.075 8.76064 90.9694 8.72962C90.8606 8.69763 90.8097 8.67012 90.819 8.67486C90.848 8.68961 90.958 8.75533 91.1103 8.88311C91.1789 8.94069 91.24 8.99755 91.2892 9.04712C91.3403 9.09855 91.3626 9.12586 91.3626 9.12586C91.3614 9.12421 91.347 9.1065 91.3236 9.07264C91.3015 9.04098 91.2578 8.97579 91.2044 8.87978C91.1554 8.79159 91.066 8.62024 90.9812 8.38091C90.9068 8.17128 90.7626 7.70855 90.7626 7.08922H99.1394C99.1394 5.89936 98.6432 5.02058 98.525 4.80808C98.3165 4.43312 98.082 4.1143 97.8877 3.8729C97.4903 3.37924 97.0056 2.89494 96.496 2.46721C95.9867 2.03969 95.3477 1.58048 94.6179 1.2091C93.9358 0.862022 92.8744 0.436913 91.6045 0.436913V8.81364ZM86.5235 18.6442C88.2469 15.5613 89.9987 12.7102 91.4465 10.6744C92.1812 9.64125 92.7586 8.93071 93.1547 8.52127C93.3583 8.31082 93.4137 8.28521 93.3323 8.34076C93.2861 8.37222 93.1365 8.47078 92.8937 8.56963C92.6587 8.6653 92.2086 8.81364 91.6045 8.81364V0.436913C90.1499 0.436913 89.0716 1.10703 88.6109 1.42137C88.0393 1.81142 87.5397 2.27777 87.134 2.69711C86.3117 3.54721 85.4536 4.64751 84.6201 5.81955C82.9314 8.19405 81.0152 11.3306 79.2117 14.5568L86.5235 18.6442ZM79.6247 33.8711C79.6247 32.9678 80.2002 30.8399 81.6005 27.7241C82.9078 24.815 84.6687 21.612 86.416 18.8257L79.3192 14.3753C77.4082 17.4225 75.4535 20.9666 73.9599 24.2903C72.559 27.4074 71.248 30.9981 71.248 33.8711H79.6247ZM79.5538 34.2825C79.9146 34.2825 80.2024 34.3401 80.3951 34.3934C80.5888 34.447 80.7269 34.5075 80.8036 34.5447C80.8823 34.5829 80.9271 34.6115 80.9366 34.6177C80.9475 34.6247 80.938 34.6193 80.9085 34.596C80.8461 34.5471 80.7441 34.4585 80.6096 34.3231C80.478 34.1906 80.3354 34.0336 80.1909 33.86C80.0467 33.6869 79.9104 33.509 79.7895 33.3384C79.6674 33.166 79.5725 33.017 79.506 32.9025C79.4733 32.8462 79.4522 32.8062 79.4404 32.7828C79.4279 32.7577 79.4319 32.7632 79.4452 32.7965C79.4566 32.8251 79.4924 32.9175 79.5288 33.0621C79.5477 33.137 79.5704 33.2403 79.5889 33.3679C79.6072 33.4937 79.6247 33.6649 79.6247 33.8711H71.248C71.248 34.8009 71.5289 35.5608 71.6671 35.9061C71.8424 36.3449 72.0569 36.7554 72.2613 37.1076C72.673 37.8169 73.1981 38.5531 73.7536 39.2202C74.3008 39.8773 74.9811 40.5925 75.736 41.185C76.2806 41.6126 77.6883 42.6592 79.5538 42.6592V34.2825ZM78.399 34.457C78.2559 34.547 78.2331 34.5504 78.3055 34.5182C78.3454 34.5005 78.4589 34.452 78.6313 34.4041C78.7902 34.3599 79.1167 34.2825 79.5538 34.2825V42.6592C80.5601 42.6592 81.361 42.3267 81.7012 42.1758C82.1361 41.983 82.5349 41.7516 82.861 41.5465L78.399 34.457ZM79.6794 33.2232C79.3179 33.7349 78.8794 34.1529 78.3898 34.4627L82.8701 41.5406C84.3294 40.6169 85.5575 39.4207 86.5216 38.0558L79.6794 33.2232ZM79.7548 33.0515C79.7223 33.1597 79.69 33.2083 79.6868 33.2126L86.5141 38.0663C87.1081 37.2308 87.5154 36.3345 87.7782 35.4585L79.7548 33.0515ZM80.0914 31.936L79.7568 33.0449L87.7762 35.465L88.1109 34.356L80.0914 31.936ZM84.0979 37.3344H84.1012V28.9576H84.0979V37.3344ZM95.2653 7.7226C94.476 6.14414 92.9038 5.2959 91.3323 5.2959V13.6726C90.7213 13.6726 89.9968 13.5272 89.2962 13.1087C88.5874 12.6851 88.0831 12.0891 87.7731 11.469L95.2653 7.7226ZM92.4692 16.2296C93.0709 15.2769 93.7646 14.179 94.2969 13.2976C94.5581 12.8648 94.817 12.4245 95.0146 12.0547C95.1059 11.8839 95.2364 11.6315 95.3493 11.3598C95.4 11.2381 95.5056 10.9748 95.5867 10.6414C95.6268 10.4769 95.6925 10.1701 95.7077 9.78177C95.7201 9.46585 95.7245 8.62857 95.2554 7.70284L87.783 11.4888C87.5369 11.0028 87.4307 10.5574 87.3819 10.2391C87.3326 9.91706 87.3299 9.64494 87.3374 9.45292C87.352 9.08299 87.4139 8.79864 87.4477 8.66051C87.5159 8.37976 87.5976 8.18465 87.6139 8.14537C87.6583 8.03857 87.6793 8.00819 87.6266 8.1066C87.5366 8.27526 87.3707 8.56238 87.1261 8.96745C86.6466 9.76147 86.0033 10.7805 85.3869 11.7563L92.4692 16.2296ZM92.4751 16.2203L92.4757 16.2193L85.3801 11.7671L85.3794 11.7682L92.4751 16.2203ZM92.4712 16.2265L92.4717 16.2255L85.3827 11.7629L85.3822 11.7639L92.4712 16.2265ZM91.1177 18.4015C91.3313 18.0328 91.8264 17.2474 92.4678 16.2318L85.3855 11.7585C84.7983 12.6883 84.186 13.6561 83.8694 14.2024L91.1177 18.4015ZM83.2874 14.1386C82.7407 15.2098 82.6234 16.4991 83.0703 17.7097C83.4852 18.8333 84.2855 19.6262 85.1279 20.0843C85.9703 20.5425 87.0686 20.7824 88.2342 20.5223C89.4899 20.242 90.5107 19.4471 91.1157 18.4051L83.8715 14.1988C84.3881 13.3093 85.2849 12.5977 86.4096 12.3467C87.4443 12.1157 88.4046 12.3309 89.13 12.7254C89.8556 13.1201 90.5601 13.8105 90.9286 14.8084C91.3291 15.8931 91.2148 17.0332 90.7484 17.9469L83.2874 14.1386ZM91.3323 5.2959C90.1745 5.2959 89.367 5.77854 89.1951 5.87984C88.8996 6.05408 88.6882 6.22776 88.5886 6.31282C88.3792 6.49147 88.2274 6.65613 88.1653 6.72444C88.0209 6.88325 87.897 7.03992 87.8209 7.13777C87.6526 7.35461 87.4604 7.61986 87.2715 7.88703C86.8836 8.43557 86.3932 9.15762 85.8967 9.90776C84.9604 11.3221 83.7826 13.1657 83.2853 14.1427L90.7505 17.9429C90.8432 17.7608 91.1057 17.3089 91.5334 16.6231C91.9352 15.9793 92.4145 15.2372 92.8816 14.5317C93.3504 13.8234 93.7898 13.1778 94.1111 12.7231C94.2769 12.4888 94.3842 12.3437 94.4372 12.2754C94.4719 12.2308 94.439 12.2762 94.3633 12.3596C94.3355 12.39 94.2125 12.5259 94.0258 12.6851C93.9375 12.7604 93.7362 12.9268 93.449 13.0961C93.3011 13.1832 93.0668 13.3093 92.7614 13.4205C92.4709 13.5264 91.9709 13.6726 91.3323 13.6726V5.2959ZM96.9729 15.2719C95.9256 16.4411 94.94 17.8568 94.0455 19.3203L101.193 23.689C101.939 22.4687 102.626 21.5155 103.213 20.8607L96.9729 15.2719ZM95.7687 20.1188C95.5797 20.1188 95.485 20.0951 95.5166 20.1016C95.5367 20.1057 95.6044 20.1219 95.7201 20.1605C95.9568 20.2397 96.254 20.3662 96.5467 20.5175C96.6879 20.5904 96.8108 20.6603 96.9091 20.7208C96.9575 20.7507 96.9961 20.7758 97.0249 20.7953C97.039 20.805 97.0499 20.8125 97.0575 20.8181C97.0653 20.8236 97.0687 20.8264 97.0687 20.8264C97.0687 20.8264 97.0635 20.8224 97.0539 20.8143C97.0443 20.8065 97.0283 20.793 97.0071 20.7737C96.9699 20.74 96.888 20.6631 96.7857 20.5435C96.6932 20.4355 96.511 20.2083 96.3369 19.87C96.1747 19.555 95.894 18.9015 95.9048 18.0152L104.281 18.1173C104.302 16.4042 103.316 15.2904 103.15 15.0965C102.804 14.6933 102.436 14.3864 102.174 14.1848C101.624 13.7624 100.988 13.3835 100.393 13.0758C99.7822 12.7603 99.0865 12.4537 98.3773 12.2164C97.7349 12.0016 96.7876 11.7421 95.7687 11.7421V20.1188ZM95.4398 23.4648C96.8639 21.1996 98.0925 19.5606 98.7959 18.8248L92.7413 13.036C91.4436 14.3933 89.8571 16.6062 88.3482 19.0064L95.4398 23.4648ZM89.7647 25.3584C89.9637 25.3584 90.6473 25.38 91.7365 25.421L92.0514 17.0502C91.0473 17.0124 90.1627 16.9816 89.7647 16.9816V25.3584ZM90.5147 25.1432C90.5147 25.4381 90.4827 25.6729 90.4601 25.8101C90.4357 25.9575 90.4076 26.0769 90.3867 26.1572C90.3462 26.3139 90.3055 26.4301 90.2858 26.484C90.2634 26.5457 90.2451 26.5899 90.2361 26.6113C90.2262 26.6346 90.2199 26.6481 90.2189 26.6503C90.2173 26.6537 90.2255 26.636 90.2463 26.5958C90.2662 26.5572 90.2935 26.5062 90.3282 26.444C90.4739 26.1832 90.6907 25.8314 90.9329 25.4943C91.0518 25.3286 91.1645 25.1839 91.2651 25.0656C91.369 24.9434 91.4361 24.8775 91.4617 24.8544C91.4984 24.8211 91.4159 24.905 91.2145 25.0139C91.1066 25.0721 90.9343 25.1542 90.7019 25.2237C90.4677 25.2939 90.1489 25.3584 89.7647 25.3584V16.9816C87.7476 16.9816 86.3369 18.1938 85.836 18.6478C85.1414 19.2774 84.558 20.0107 84.1294 20.6073C83.6835 21.2281 83.2979 21.8521 83.0131 22.3625C82.8723 22.615 82.7334 22.8802 82.6166 23.1325C82.5608 23.2532 82.485 23.4246 82.4139 23.6201C82.3788 23.7165 82.3262 23.8694 82.2777 24.0566C82.2447 24.1843 82.138 24.6021 82.138 25.1432H90.5147ZM86.5527 21.0663C86.6805 21.0663 87.2411 21.0647 87.9224 21.3307C88.2891 21.4739 88.927 21.7858 89.5006 22.4423C90.1456 23.1806 90.5147 24.1383 90.5147 25.1432H82.138C82.138 27.6445 84.0371 28.8062 84.8754 29.1336C85.6428 29.4332 86.3166 29.4431 86.5527 29.4431V21.0663ZM89.3774 20.9452C87.9874 21.0249 86.9886 21.0663 86.5527 21.0663V29.4431C87.265 29.4431 88.4971 29.3861 89.8565 29.3082L89.3774 20.9452ZM91.4438 30.8168C92.0017 29.5979 92.6334 28.3486 93.2975 27.1258L85.9365 23.1276C85.1964 24.4903 84.4764 25.9116 83.8269 27.3306L91.4438 30.8168ZM89.5367 35.9763C89.6344 35.6449 90.515 32.7396 91.4061 30.897L83.8646 27.2504C82.6362 29.7909 81.5877 33.3163 81.5016 33.6082L89.5367 35.9763ZM89.2712 37.7286C89.2712 37.352 89.3485 36.7271 89.5781 35.8254L81.4603 33.7591C81.1385 35.0228 80.8944 36.3927 80.8944 37.7286H89.2712ZM89.2003 38.1401C89.5611 38.1401 89.8488 38.1977 90.0416 38.251C90.2352 38.3046 90.3734 38.3651 90.4501 38.4023C90.5288 38.4404 90.5736 38.4691 90.5832 38.4753C90.594 38.4823 90.5845 38.4769 90.5549 38.4536C90.4926 38.4046 90.3906 38.316 90.2562 38.1807C90.1244 38.0482 89.9819 37.8912 89.8373 37.7176C89.6932 37.5445 89.5568 37.3666 89.436 37.1959C89.3139 37.0236 89.2189 36.8745 89.1525 36.76C89.1199 36.7038 89.0987 36.6638 89.0869 36.6404C89.0744 36.6153 89.0783 36.6207 89.0916 36.6541C89.1031 36.6827 89.1389 36.7751 89.1752 36.9196C89.1941 36.9945 89.2168 37.0979 89.2354 37.2254C89.2537 37.3513 89.2712 37.5224 89.2712 37.7286H80.8944C80.8944 38.6584 81.1754 39.4184 81.3135 39.7637C81.4889 40.2025 81.7033 40.613 81.9077 40.9652C82.3194 41.6745 82.8445 42.4106 83.4 43.0777C83.9472 43.7348 84.6276 44.4501 85.3825 45.0426C85.9271 45.4702 87.3348 46.5168 89.2003 46.5168V38.1401ZM92.9998 33.3101C92.9998 33.3101 92.9981 33.3127 92.9938 33.3187C92.9896 33.3245 92.9837 33.3327 92.976 33.3433C92.9603 33.3648 92.939 33.3932 92.9118 33.429C92.8569 33.5012 92.7852 33.5928 92.6965 33.7032C92.5187 33.9241 92.2905 34.1978 92.0233 34.5064C91.487 35.1262 90.8299 35.8453 90.1599 36.5193C89.473 37.2103 88.853 37.7726 88.3809 38.1317C88.1418 38.3138 88.03 38.3747 88.0338 38.3728C88.0403 38.3693 88.1293 38.3229 88.2887 38.2728C88.4384 38.2256 88.7591 38.1401 89.2003 38.1401V46.5168C90.4091 46.5168 91.3817 46.0717 91.8786 45.815C92.4637 45.5127 93.0017 45.1417 93.4537 44.7978C94.3638 44.1052 95.2913 43.2392 96.1009 42.4247C97.6839 40.8322 99.2701 38.9729 99.8957 38.0658L92.9998 33.3101ZM92.4926 34.4716C92.4452 34.3482 92.4254 34.2666 92.4206 34.2459C92.4146 34.2205 92.4159 34.2204 92.4198 34.2483C92.4282 34.3086 92.4363 34.4052 92.4371 34.512C92.4381 34.6267 92.4302 34.6691 92.436 34.6289C92.4387 34.6093 92.453 34.5106 92.4955 34.3597C92.5175 34.2815 92.5546 34.1626 92.6139 34.0178C92.6709 33.8788 92.7695 33.6632 92.9297 33.4151L99.9658 37.9607C100.562 37.0373 100.693 36.0624 100.73 35.8001C100.796 35.3352 100.817 34.8647 100.814 34.4418C100.807 33.7104 100.724 32.5378 100.311 31.4645L92.4926 34.4716ZM99.7199 35.271C99.461 35.6595 99.1911 35.915 99.1629 35.9426C99.0684 36.0348 98.9851 36.1073 98.9242 36.1581C98.7995 36.262 98.6732 36.3547 98.5467 36.4373C98.3232 36.5833 97.9125 36.8207 97.3415 36.9667C96.7624 37.1149 95.6998 37.2418 94.547 36.6894C93.3408 36.1113 92.7422 35.1311 92.4845 34.4502L100.319 31.4859C100.039 30.7443 99.4085 29.7302 98.1675 29.1354C96.9802 28.5663 95.8798 28.6941 95.2654 28.8514C94.6591 29.0064 94.2156 29.261 93.9673 29.4232C93.8284 29.5139 93.6917 29.6144 93.5593 29.7247C93.4945 29.7788 93.408 29.8541 93.3111 29.9487C93.2805 29.9787 93.0089 30.236 92.7492 30.6258L99.7199 35.271ZM90.7588 41.9597C91.6917 41.9597 92.3961 41.6532 92.6149 41.5561C92.9318 41.4155 93.1949 41.26 93.3728 41.1482C93.7347 40.9206 94.0836 40.6564 94.3709 40.4276C94.963 39.9561 95.6312 39.3628 96.2478 38.794C97.478 37.6593 98.7695 36.3744 99.3056 35.7963L93.1634 30.1004C92.8203 30.4706 91.6954 31.5971 90.5683 32.6367C90.0062 33.1552 89.5105 33.5899 89.1529 33.8745C88.9655 34.0238 88.8933 34.0698 88.9123 34.0577C88.9189 34.0536 89.0303 33.9823 89.2182 33.899C89.3079 33.8592 89.9061 33.583 90.7588 33.583V41.9597ZM92.0955 22.8035C90.4445 25.9909 88.9896 29.4085 88.0046 32.0469C87.5154 33.357 87.1135 34.5512 86.8605 35.4714C86.7435 35.8971 86.6104 36.4336 86.5473 36.9505C86.5234 37.1456 86.4564 37.7138 86.5679 38.3813C86.6207 38.6967 86.7777 39.4622 87.351 40.2387C88.067 41.2085 89.279 41.9597 90.7588 41.9597V33.583C92.2072 33.583 93.3939 34.3204 94.09 35.2632C94.6435 36.0128 94.7863 36.7383 94.8302 37.0009C94.8848 37.3282 94.8838 37.5822 94.881 37.6973C94.8777 37.829 94.8673 37.9239 94.8622 37.966C94.8487 38.0759 94.8481 38.0175 94.9377 37.6917C95.0979 37.1089 95.4054 36.1734 95.8521 34.9768C96.7389 32.602 98.0612 29.4989 99.5337 26.656L92.0955 22.8035ZM101.101 20.1319C101.104 20.1316 100.554 20.1805 99.4165 20.2678C98.3757 20.3478 96.9995 20.4488 95.5238 20.5515L96.1054 28.908C98.9741 28.7083 101.743 28.4972 102.208 28.4351L101.101 20.1319ZM98.6178 21.9771C98.6178 21.7899 98.6317 21.6538 98.6359 21.6141C98.6419 21.5572 98.6475 21.5202 98.6494 21.5079C98.6534 21.4832 98.653 21.4904 98.6449 21.5259C98.6274 21.6029 98.6022 21.6889 98.5812 21.7456C98.5462 21.8392 98.5809 21.7049 98.7502 21.4708C98.8412 21.345 99.0415 21.0917 99.3824 20.8328C99.7358 20.5645 100.314 20.2374 101.099 20.1322L102.211 28.4348C104.111 28.1803 105.166 26.8942 105.539 26.3782C105.992 25.7502 106.27 25.1026 106.431 24.6701C106.606 24.2006 106.731 23.7475 106.814 23.3788C106.867 23.1461 106.995 22.5662 106.995 21.9771H98.6178ZM97.378 25.6862C98.7558 25.7646 100.005 25.8447 100.895 25.9203C101.353 25.9593 101.645 25.9911 101.792 26.0122C101.889 26.0261 101.807 26.019 101.646 25.9771C101.597 25.9644 101.297 25.8892 100.929 25.7081C100.757 25.6237 100.336 25.4048 99.9012 24.9877C99.4813 24.5854 98.6178 23.5697 98.6178 21.9771H106.995C106.995 20.3756 106.126 19.3511 105.697 18.9398C105.252 18.5139 104.818 18.2859 104.628 18.1925C104.223 17.9932 103.868 17.8996 103.748 17.8684C103.443 17.7894 103.15 17.7443 102.977 17.7196C102.584 17.6635 102.097 17.6156 101.604 17.5737C100.591 17.4877 99.2449 17.4022 97.8536 17.323L97.378 25.6862ZM97.6191 17.3163H97.6158V25.693H97.6191V17.3163ZM54.8212 20.2534C54.8212 20.2379 54.7006 21.0168 53.9101 22.7258C53.2152 24.2279 52.2298 25.9732 51.1383 27.6376C50.0392 29.3135 48.9165 30.7795 47.982 31.7733C47.5076 32.2775 47.176 32.5588 47.0007 32.6824C46.6864 32.9039 47.1422 32.4595 48.1236 32.4595V40.8363C49.8212 40.8363 51.1541 40.0033 51.8268 39.5292C52.6384 38.9572 53.4034 38.2357 54.0839 37.5122C55.4589 36.0502 56.8787 34.1594 58.1431 32.2313C59.4151 30.2916 60.6141 28.1855 61.5128 26.2427C62.3158 24.5068 63.198 22.2473 63.198 20.2534H54.8212ZM54.797 20.4259C54.5149 20.4259 54.2927 20.3891 54.1477 20.3564C54.0007 20.3233 53.8967 20.2864 53.8407 20.2645C53.7833 20.242 53.753 20.2262 53.7512 20.2252C53.7486 20.2239 53.7629 20.2313 53.7943 20.251C53.8597 20.2922 53.9603 20.3626 54.0886 20.4666C54.2147 20.5688 54.3495 20.6888 54.4841 20.8202C54.6184 20.9515 54.7416 21.0836 54.8467 21.2069C54.9536 21.3323 55.0264 21.4304 55.0684 21.4927C55.0885 21.5226 55.0952 21.5348 55.092 21.5293C55.0896 21.525 55.0693 21.4891 55.0408 21.4234C55.0262 21.3895 55.0074 21.3433 54.9871 21.2856C54.9669 21.2282 54.9433 21.1541 54.9203 21.0647C54.8975 20.9756 54.8733 20.8636 54.8545 20.7318C54.8359 20.6001 54.8212 20.4389 54.8212 20.2534H63.198C63.198 19.3035 62.9177 18.5329 62.7275 18.094C62.5152 17.6037 62.2557 17.1688 62.0155 16.8123C61.5342 16.098 60.9377 15.4145 60.3388 14.8292C59.7404 14.2444 59.0258 13.6463 58.2594 13.1635C57.6555 12.7831 56.3742 12.0492 54.797 12.0492V20.4259ZM51.1529 24.3045C52.2587 23.1568 53.4739 21.9967 54.507 21.1559C55.0303 20.7299 55.4185 20.4587 55.6623 20.3158C55.7823 20.2454 55.7959 20.2486 55.7183 20.2779C55.6713 20.2957 55.3302 20.4259 54.797 20.4259V12.0492C53.275 12.0492 52.0068 12.7488 51.4258 13.0893C50.6662 13.5346 49.908 14.0985 49.2191 14.6592C47.8275 15.7918 46.354 17.2121 45.1206 18.4923L51.1529 24.3045ZM44.329 19.8531C44.329 19.7865 44.3319 19.7315 44.3354 19.6895C44.3387 19.6475 44.343 19.615 44.3462 19.593C44.3526 19.5508 44.3574 19.5354 44.3537 19.5498C44.3501 19.5634 44.3416 19.5936 44.3254 19.641C44.3093 19.6879 44.2881 19.7444 44.2613 19.8097L52.0121 22.987C52.2893 22.3109 52.7057 21.1422 52.7057 19.8531H44.329ZM44.5655 20.3224C44.4348 20.3072 44.3465 20.2813 44.3025 20.2663C44.2577 20.2509 44.2406 20.2405 44.2477 20.2445C44.2686 20.256 44.3246 20.2935 44.3835 20.3542C44.4438 20.4162 44.4514 20.4445 44.4322 20.4048C44.4142 20.3676 44.329 20.1778 44.329 19.8531H52.7057C52.7057 17.5424 51.5185 15.6758 50.3889 14.5143C49.2542 13.3474 47.5487 12.2362 45.5334 12.0018L44.5655 20.3224ZM35.7992 28.3502C37.9328 27.479 40.6023 25.9776 42.9303 24.2911C44.1058 23.4395 45.2725 22.4845 46.2755 21.4726C47.2359 20.5037 48.2582 19.2729 48.8848 17.8453L41.2142 14.4789C41.2142 14.4789 41.201 14.5087 41.1641 14.5697C41.1276 14.6302 41.0736 14.7118 40.9972 14.8139C40.8417 15.0217 40.6215 15.2776 40.3263 15.5755C39.7306 16.1765 38.9388 16.8388 38.0159 17.5075C36.1467 18.8616 34.0589 20.0127 32.6328 20.5949L35.7992 28.3502ZM35.8105 22.2002C36.4649 22.2002 36.9814 22.3724 37.3145 22.5273C37.6423 22.6797 37.8622 22.8468 37.9765 22.9424C38.1894 23.1206 38.2643 23.2441 38.2319 23.1978C38.2164 23.1758 38.1871 23.1278 38.162 23.0782C38.1153 22.9857 38.1725 23.0748 38.2432 23.322L30.1887 25.6232C30.4152 26.4159 30.8884 27.3159 31.3737 28.0078C31.637 28.3832 32.0427 28.8995 32.5989 29.3652C33.0827 29.7703 34.2011 30.577 35.8105 30.577V22.2002ZM38.9075 20.9399C38.3874 21.2012 37.543 21.5624 36.7258 21.8536C36.3226 21.9972 35.9824 22.1036 35.7337 22.1686C35.6102 22.2009 35.5421 22.2143 35.5222 22.2177C35.4825 22.2246 35.5975 22.2002 35.8105 22.2002V30.577C36.6126 30.577 37.3882 30.3943 37.8523 30.273C38.4076 30.1278 38.9902 29.9393 39.5376 29.7442C40.6217 29.3579 41.7902 28.866 42.6677 28.4252L38.9075 20.9399ZM34.733 47.406C35.1752 46.7398 35.9078 45.2861 36.6323 43.8098C37.4283 42.1874 38.4073 40.1322 39.4138 37.9782C41.4163 33.6933 43.5845 28.8973 44.6619 26.2736L36.9132 23.0915C35.9171 25.5171 33.8218 30.1585 31.8249 34.4318C30.8318 36.557 29.877 38.5609 29.1121 40.1197C28.7289 40.9008 28.4011 41.5541 28.1442 42.0483C27.8524 42.6098 27.7381 42.797 27.7539 42.7733L34.733 47.406ZM36.4699 43.7589C36.6071 43.7589 36.7083 43.7695 36.765 43.777C36.8233 43.7848 36.8571 43.7923 36.8629 43.7937C36.8702 43.7953 36.8214 43.7841 36.7124 43.7441C36.4907 43.6629 36.1754 43.5203 35.8122 43.32C35.4542 43.1225 35.1113 42.9028 34.8302 42.6951C34.6914 42.5925 34.5821 42.5035 34.502 42.4328C34.4185 42.3589 34.3907 42.3261 34.4012 42.3381L28.0858 47.8413C29.0919 48.9959 30.5628 49.9909 31.7659 50.6545C32.4144 51.0123 33.1222 51.3498 33.8292 51.609C34.4515 51.8371 35.417 52.1356 36.4699 52.1356V43.7589ZM38.7732 32.2229C37.366 35.5928 35.9017 39.0992 34.7556 41.7618C34.1803 43.0986 33.7013 44.1847 33.3574 44.9223C33.1803 45.3023 33.0686 45.5257 33.0135 45.6275C32.9767 45.6954 33.0145 45.6176 33.1082 45.482C33.1439 45.4304 33.2929 45.2145 33.5395 44.9676C33.6608 44.8461 33.9163 44.6041 34.2959 44.3715C34.6276 44.1681 35.4549 43.7219 36.6126 43.7614L36.3272 52.1332C37.4935 52.173 38.3306 51.7235 38.6735 51.5132C39.0643 51.2738 39.3325 51.0213 39.4676 50.8859C39.742 50.6112 39.9241 50.3535 39.998 50.2466C40.1683 50.0003 40.3029 49.758 40.3822 49.6115C40.5589 49.2845 40.755 48.8791 40.9495 48.4621C41.3487 47.6058 41.8683 46.4248 42.4499 45.0735C43.6179 42.36 45.1018 38.8064 46.5029 35.4511L38.7732 32.2229ZM39.2915 30.9819L38.7732 32.2229L46.5029 35.4511L47.0211 34.2102L39.2915 30.9819ZM48.1269 32.4563C48.1248 32.4563 48.1366 32.4563 48.1568 32.4606C48.1768 32.4647 48.1916 32.4701 48.1977 32.4727C48.21 32.478 48.1515 32.4561 48.0264 32.3428C47.7384 32.082 47.3403 31.5622 46.8711 30.6613L39.4417 34.5308C40.6494 36.8498 43.2359 40.833 48.1269 40.833V32.4563ZM51.0844 39.6104L51.0876 39.6072L45.1662 33.6821L45.1629 33.6855L51.0844 39.6104ZM53.6158 15.2349C52.5999 15.2349 51.8332 15.5947 51.5962 15.7078C51.2483 15.8737 50.9526 16.0605 50.7406 16.2037C50.3092 16.4953 49.8746 16.847 49.485 17.1817C48.6871 17.8673 47.7568 18.7607 46.8362 19.6958C45.0148 21.5461 42.9436 23.854 41.7026 25.5308L48.4358 30.5141C49.3436 29.2875 51.1094 27.2957 52.8059 25.5723C53.6443 24.7206 54.3932 24.0086 54.944 23.5354C55.2286 23.2909 55.3855 23.1749 55.4317 23.1437C55.4586 23.1256 55.3732 23.187 55.203 23.2682C55.144 23.2963 54.5226 23.6116 53.6158 23.6116V15.2349ZM46.6111 35.2391C47.8376 35.2391 48.7496 34.7486 49.1729 34.4885C49.6608 34.1886 50.0556 33.8437 50.3406 33.5696C50.9158 33.0164 51.4542 32.3494 51.9163 31.7249C52.8618 30.447 53.862 28.8342 54.7309 27.3046C55.6032 25.7689 56.4176 24.1861 56.972 22.9315C57.2334 22.3398 57.5125 21.654 57.6842 21.0247C57.7485 20.7892 57.9222 20.1401 57.889 19.3721C57.8735 19.0155 57.7989 18.0804 57.1607 17.1269C56.3316 15.888 54.9696 15.23 53.6005 15.235L53.631 23.6116C52.3185 23.6164 50.9989 22.981 50.1992 21.7859C49.5904 20.8762 49.5319 20.0062 49.52 19.7346C49.5046 19.379 49.5443 19.1174 49.5602 19.0219C49.5797 18.9052 49.5994 18.8324 49.603 18.8193C49.6093 18.796 49.5957 18.8484 49.5385 18.998C49.4851 19.1374 49.4098 19.32 49.31 19.5459C48.9011 20.4712 48.2266 21.7953 47.4473 23.167C46.6648 24.5447 45.8508 25.8393 45.1827 26.7421C44.838 27.208 44.6196 27.4496 44.5336 27.5324C44.4879 27.5763 44.576 27.4813 44.7867 27.3518C44.9327 27.2621 45.5971 26.8624 46.6111 26.8624V35.2391ZM41.2268 31.8401C41.4264 32.0985 41.9147 32.7177 42.5098 33.306C42.8017 33.5946 43.2241 33.9811 43.7369 34.3222C44.13 34.5837 45.1804 35.2391 46.6111 35.2391V26.8624C47.219 26.8624 47.673 27.0115 47.9082 27.1061C48.1539 27.2048 48.3134 27.3058 48.3761 27.3474C48.4913 27.4241 48.5001 27.4488 48.3987 27.3487C48.2072 27.1593 47.99 26.8927 47.8551 26.7181L41.2268 31.8401ZM41.208 26.3994L40.6798 27.656L48.4019 30.9022L48.9302 29.6456L41.208 26.3994ZM87.9201 38.8668C86.9531 38.1754 85.6116 37.7278 84.6579 37.439C83.5024 37.089 82.0821 36.74 80.5001 36.4153C77.3307 35.7649 73.3199 35.173 69.1317 34.8774L68.542 43.2333C72.3494 43.5019 75.9946 44.0419 78.8161 44.621C80.2294 44.9111 81.3883 45.2012 82.2301 45.4561C83.2736 45.7721 83.3474 45.895 83.0481 45.6809L87.9201 38.8668ZM85.4874 38.0854H85.484V46.4622H85.4874V38.0854ZM91.1783 45.3841C91.1783 44.1811 90.7995 42.9607 90.4007 42.0617C90.0109 41.1832 89.2534 39.814 87.9171 38.8623L83.0577 45.6854C82.9129 45.5823 82.8177 45.4903 82.7658 45.4354C82.7128 45.3795 82.6862 45.3425 82.6807 45.3348C82.6738 45.325 82.7023 45.3657 82.7435 45.4584C82.7835 45.5485 82.8098 45.6303 82.8214 45.6761C82.8267 45.6969 82.8239 45.6905 82.8189 45.6564C82.8147 45.628 82.8016 45.5328 82.8016 45.3841H91.1783ZM66.2854 47.5496C75.3607 47.8246 84.0828 49.0912 86.201 49.4975L87.7791 41.2708C85.2449 40.7846 76.0797 39.4658 66.5392 39.1766L66.2854 47.5496ZM57.0781 57.9355C58.9525 57.9355 60.4896 57.0834 61.5188 56.3416C62.6101 55.5549 63.623 54.5327 64.5372 53.4666C66.3732 51.3254 68.2486 48.487 70.0177 45.4947L62.8069 41.2315C61.1311 44.066 59.5452 46.4197 58.1782 48.0138C57.4909 48.8153 56.9669 49.2965 56.6204 49.5464C56.2116 49.841 56.4096 49.5587 57.0781 49.5587V57.9355ZM37.9486 43.5796C37.9486 44.5923 38.2957 45.3795 38.4343 45.6787C38.6211 46.0826 38.8415 46.4438 39.0356 46.7347C39.4289 47.3244 39.9264 47.9396 40.4557 48.5335C41.5273 49.7358 42.972 51.1215 44.6105 52.4404C46.2454 53.7562 48.1697 55.0836 50.2078 56.0997C52.1992 57.0926 54.5912 57.9355 57.0781 57.9355V49.5587C56.404 49.5587 55.3478 49.3022 53.9451 48.603C52.5889 47.9268 51.1732 46.9695 49.863 45.9149C48.5565 44.8633 47.4514 43.7928 46.7093 42.9602C46.3318 42.5366 46.1066 42.2398 46.0039 42.0859C45.95 42.005 45.979 42.0365 46.0365 42.1609C46.0457 42.1806 46.3254 42.7384 46.3254 43.5796H37.9486ZM43.239 35.8281C41.9061 36.1011 41.0852 36.9244 40.9033 37.1033C40.5738 37.4272 40.3163 37.7618 40.1401 38.008C39.776 38.5167 39.4472 39.0896 39.1842 39.5979C38.915 40.1181 38.6539 40.6882 38.4482 41.2303C38.324 41.5573 37.9486 42.5346 37.9486 43.5796H46.3254C46.3254 43.8447 46.2959 44.0393 46.2816 44.1239C46.2651 44.2202 46.249 44.2817 46.2444 44.2991C46.2361 44.3302 46.2425 44.3009 46.2797 44.203C46.353 44.0098 46.4754 43.7345 46.6237 43.448C46.7781 43.1496 46.9009 42.9545 46.952 42.8831C46.9835 42.8391 46.9245 42.9305 46.7757 43.0769C46.6993 43.152 46.5382 43.3023 46.296 43.4642C46.0771 43.6106 45.6043 43.8943 44.9197 44.0345L43.239 35.8281ZM62.6943 34.68C55.5736 34.7091 47.0821 35.0378 43.2356 35.8288L44.923 44.0338C47.8089 43.4403 55.4463 43.0865 62.7287 43.0566L62.6943 34.68ZM63.124 29.1996C61.7994 31.797 60.4106 34.4226 59.0636 36.8103L66.3593 40.9263C67.7814 38.4058 69.2272 35.6703 70.5865 33.0053L63.124 29.1996ZM59.8079 41.0553C60.9527 41.0553 61.8667 40.6279 62.2297 40.4502C62.7183 40.211 63.1768 39.9214 63.5631 39.6563C64.3448 39.1199 65.1783 38.4423 65.9411 37.7815C67.4719 36.4554 69.0538 34.9027 69.9434 33.9319L63.767 28.2731C63.1145 28.9852 61.7668 30.3148 60.4562 31.4502C59.7984 32.0201 59.2335 32.4681 58.8233 32.7496C58.6137 32.8933 58.528 32.9357 58.5472 32.9263C58.5598 32.9202 58.656 32.873 58.8197 32.822C58.9634 32.7772 59.3178 32.6786 59.8079 32.6786V41.0553ZM52.4928 32.8577C52.4928 34.0645 52.8887 35.1219 53.1932 35.7881C53.5357 36.5377 53.9812 37.2596 54.4613 37.8931C54.9333 38.5158 55.5351 39.1803 56.2454 39.7332C56.8225 40.1826 58.0935 41.0553 59.8079 41.0553V32.6786C60.4281 32.6786 60.8684 32.8469 61.0649 32.9362C61.2732 33.0308 61.3816 33.1159 61.3912 33.1234C61.4039 33.1332 61.2982 33.0457 61.137 32.833C60.984 32.6312 60.8705 32.4342 60.8123 32.3069C60.7846 32.2465 60.7892 32.2446 60.8048 32.3011C60.8167 32.344 60.8696 32.543 60.8696 32.8577H52.4928ZM57.8895 19.2591C56.8541 21.4791 55.5808 24.209 54.5663 26.5247C54.0611 27.6781 53.5968 28.7813 53.2521 29.6941C53.0812 30.1468 52.9186 30.6076 52.793 31.034C52.7074 31.3249 52.4928 32.0579 52.4928 32.8577H60.8696C60.8696 33.3829 60.7463 33.6798 60.8286 33.4002C60.871 33.2563 60.9531 33.0124 61.0887 32.6534C61.357 31.9428 61.7535 30.9943 62.2392 29.8859C63.2063 27.6779 64.4351 25.0428 65.4813 22.7996L57.8895 19.2591ZM59.7494 15.1875C59.5912 15.6023 58.9081 17.0748 57.8895 19.2591L65.4813 22.7996C66.3922 20.8462 67.2774 18.9561 67.5765 18.1719L59.7494 15.1875ZM72.4576 18.8155C72.4576 17.3481 71.7563 16.3267 71.4065 15.8876C71.0068 15.3856 70.566 15.0214 70.2468 14.7845C69.5939 14.3002 68.8547 13.9145 68.2146 13.628C67.0621 13.1124 65.2648 12.4913 63.6629 12.4913V20.868C63.5361 20.868 63.4953 20.8553 63.566 20.8674C63.6254 20.8776 63.7271 20.8991 63.8678 20.9381C64.1547 21.0177 64.4884 21.1379 64.793 21.2741C65.1253 21.4228 65.2688 21.5217 65.2555 21.5119C65.2421 21.5019 65.1994 21.4695 65.1376 21.4129C65.0785 21.3589 64.9744 21.2573 64.8537 21.1058C64.737 20.9592 64.5595 20.7094 64.4034 20.3565C64.2452 19.999 64.0809 19.4712 64.0809 18.8155H72.4576ZM68.9274 28.3858C69.6454 26.7379 70.4579 24.8738 71.0905 23.3453C71.4051 22.5853 71.6946 21.8618 71.9111 21.2671C72.0178 20.9738 72.1259 20.6602 72.2127 20.3626C72.2514 20.2296 72.4576 19.5654 72.4576 18.8155H64.0809C64.0809 18.2145 64.2328 17.8051 64.171 18.017C64.1573 18.0642 64.1184 18.1856 64.0397 18.4015C63.8856 18.8248 63.6507 19.4166 63.3505 20.1418C62.7537 21.5838 61.9754 23.3705 61.248 25.0397L68.9274 28.3858ZM60.8841 27.8413C61.0512 27.731 62.4521 26.7688 64.3439 27.3155C66.6477 27.9812 67.1851 30.0274 67.2809 30.5034C67.4056 31.1229 67.354 31.6162 67.34 31.7481C67.3188 31.9495 67.2869 32.1035 67.2704 32.1779C67.2182 32.4147 67.1606 32.5541 67.2002 32.4449C67.2445 32.3222 67.3468 32.0638 67.5222 31.644C67.8621 30.831 68.3628 29.6816 68.9274 28.3858L61.248 25.0397C60.6942 26.3109 60.1634 27.5286 59.7937 28.4132C59.6144 28.842 59.4424 29.265 59.3222 29.5975C59.2794 29.7158 59.1671 30.0263 59.0911 30.3703C59.0688 30.4714 59.0329 30.6483 59.0096 30.8684C58.9937 31.0189 58.9421 31.5269 59.069 32.1567C59.1669 32.6431 59.7083 34.6954 62.0184 35.3629C63.9164 35.9115 65.3258 34.9468 65.5033 34.8294L60.8841 27.8413ZM62.6887 26.1942C62.1238 26.7059 61.6153 27.1664 61.2218 27.5165C61.0241 27.6924 60.8731 27.8247 60.7681 27.9143C60.7431 27.9356 60.7232 27.9523 60.7081 27.965C60.7006 27.9712 60.6948 27.976 60.6906 27.9795C60.6885 27.9811 60.6858 27.9833 60.6858 27.9833C60.6858 27.9833 60.6894 27.9805 60.6921 27.9784C60.6973 27.9742 60.707 27.9668 60.7204 27.9566C60.7391 27.9426 60.8029 27.8947 60.8952 27.8341L65.4924 34.8366C65.8054 34.6311 66.1111 34.3669 66.2029 34.2886C66.3752 34.1418 66.5777 33.9637 66.7904 33.7744C67.2178 33.3941 67.7574 32.9052 68.3124 32.4025L62.6887 26.1942ZM66.0916 23.1764C65.2287 23.8918 63.8197 25.1696 62.6887 26.1942L68.3124 32.4025C69.5161 31.3121 70.7534 30.1927 71.4377 29.6254L66.0916 23.1764ZM68.2738 18.1257C67.3624 19.8737 66.1713 22.1575 64.9983 24.5688L72.5311 28.2331C73.646 25.9412 74.7856 23.7552 75.7015 21.9986L68.2738 18.1257ZM69.7507 15.228C69.7734 15.1666 69.7655 15.1963 69.6779 15.3816C69.602 15.542 69.4966 15.7559 69.3582 16.0295C69.0805 16.5783 68.715 17.2795 68.2738 18.1257L75.7015 21.9986C76.4717 20.5213 77.313 18.9304 77.6082 18.1314L69.7507 15.228ZM82.367 19.7573C82.7678 18.0203 82.0363 16.6849 81.6314 16.1051C81.2011 15.4891 80.6978 15.0667 80.3731 14.8206C79.6946 14.306 78.9175 13.9097 78.2749 13.6266C77.1029 13.1104 75.269 12.4913 73.6795 12.4913V20.868C73.4922 20.868 73.5549 20.8445 73.9242 20.9454C74.2323 21.0297 74.5852 21.1547 74.8986 21.2928C75.2504 21.4477 75.3673 21.5373 75.3118 21.4953C75.2987 21.4854 75.0391 21.2958 74.7637 20.9015C74.5137 20.5434 73.8481 19.4189 74.2047 17.8738L82.367 19.7573ZM72.5228 41.0442C75.0539 36.3537 77.4108 31.4183 79.1572 27.5536C80.0316 25.6185 80.7604 23.9355 81.288 22.668C81.551 22.0363 81.7703 21.4922 81.9351 21.0636C82.0482 20.7696 82.2659 20.2054 82.3716 19.7372L74.2002 17.8939C74.2565 17.6438 74.2964 17.5896 74.1167 18.0567C73.9889 18.3894 73.8006 18.8577 73.5544 19.449C73.0639 20.6275 72.3692 22.2329 71.5237 24.1041C69.83 27.8518 67.5609 32.5999 65.1509 37.0664L72.5228 41.0442ZM55.2015 44.5225C55.6939 44.5225 55.9544 44.6441 55.8377 44.6011C55.7771 44.5788 55.6218 44.5125 55.3648 44.3727C54.8521 44.0941 54.2081 43.6737 53.5431 43.1889C52.8862 42.7101 52.2965 42.2326 51.9002 41.8818C51.8039 41.7966 51.727 41.7258 51.6686 41.6703C51.6398 41.6428 51.6178 41.6213 51.6021 41.6056C51.5859 41.5894 51.5794 41.5824 51.5808 41.5839C51.5808 41.5839 51.5968 41.6011 51.6228 41.6316C51.6463 41.6594 51.6982 41.722 51.7635 41.8134C51.819 41.891 51.9457 42.0743 52.0744 42.3371C52.1409 42.4727 52.2328 42.6798 52.3125 42.9442C52.3889 43.1977 52.4869 43.6109 52.4869 44.1308H44.1101C44.1101 45.1021 44.4478 45.8097 44.552 46.0225C44.7002 46.3248 44.8559 46.5546 44.9492 46.6852C45.1399 46.9521 45.3353 47.1695 45.462 47.305C45.7329 47.5947 46.0487 47.8893 46.3484 48.1545C46.9654 48.7005 47.7644 49.3426 48.6086 49.958C49.4445 50.5674 50.4138 51.2158 51.3641 51.7323C51.8384 51.9902 52.3769 52.2531 52.9398 52.4606C53.4463 52.6473 54.2597 52.8993 55.2015 52.8993V44.5225ZM56.5143 41.0908C55.5358 42.6278 54.7175 43.7613 54.1001 44.4647C53.9535 44.6317 53.8355 44.7546 53.7459 44.8411C53.6535 44.9301 53.6134 44.9589 53.6245 44.9507C53.6287 44.9476 53.744 44.8612 53.9627 44.7667C54.1777 44.6739 54.6097 44.5225 55.2015 44.5225V52.8993C56.8118 52.8993 58.0155 52.1204 58.5937 51.6944C59.2767 51.191 59.8836 50.5741 60.3958 49.9903C61.4319 48.8099 62.5183 47.2579 63.5805 45.5894L56.5143 41.0908ZM52.4869 44.1308C52.4869 45.4383 51.8946 46.3623 51.4944 46.8332C51.1041 47.2926 50.7049 47.5586 50.5087 47.6791C50.112 47.9231 49.772 48.0357 49.6884 48.0636C49.5555 48.1078 49.4563 48.1323 49.4184 48.1413C49.3731 48.1521 49.346 48.1572 49.344 48.1576C49.3419 48.158 49.3767 48.1516 49.4615 48.1395C49.542 48.128 49.6481 48.1143 49.7819 48.0987C50.3301 48.0348 51.1711 47.9589 52.2391 47.8823C54.3626 47.7303 57.2285 47.5869 60.1327 47.5276L59.962 39.1526C56.9114 39.2148 53.9029 39.365 51.6407 39.5271C50.5159 39.6076 49.5362 39.6939 48.8119 39.7784C48.465 39.8188 48.0956 39.8679 47.7742 39.9293C47.6395 39.955 47.3552 40.0116 47.0418 40.116C46.9143 40.1584 46.5411 40.2853 46.122 40.5429C45.9147 40.6703 45.5071 40.943 45.111 41.409C44.7053 41.8866 44.1101 42.8169 44.1101 44.1308H52.4869Z" fill="#FAEADE"/>
</g>
</g>
<defs>
<clipPath id="clip0_1_23">
<rect width="106.803" height="57.59" fill="white" transform="translate(0.193359 0.390015)"/>
</clipPath>
</defs>
</svg>
